# Blender 4.1.1
# www.blender.org
mtllib chargeGun.mtl
o 立方体.001
v -0.130142 -0.601792 -0.795735
v -0.135689 -0.560463 -0.872662
v -0.085839 -0.581112 -0.845552
v -0.245200 -0.486692 -0.910392
v -0.259281 -0.436802 -0.931033
v -0.230080 -0.436870 -0.960234
v -0.209432 -0.486720 -0.946176
v -0.085839 -0.091817 -0.931033
v -0.056638 -0.091885 -0.960234
v -0.085839 -0.121019 -0.960234
v -0.209432 -0.215343 -0.960234
v -0.230080 -0.265193 -0.960234
v -0.259281 -0.223896 -0.931033
v -0.085839 -0.558631 -3.997069
v -0.085839 -0.581112 -3.949231
v -0.135689 -0.560463 -3.949231
v -0.139655 -0.529697 -4.000650
v -0.209432 -0.486720 -3.949231
v -0.230080 -0.436870 -3.949231
v -0.207600 -0.436870 -3.997069
v -0.178666 -0.490687 -4.000650
v -0.085839 -0.488552 -4.055167
v -0.139655 -0.490687 -4.032990
v -0.137521 -0.436870 -4.055167
v -0.085839 -0.436870 -4.073804
v -0.027436 -0.091885 -3.920030
v -0.085839 -0.121019 -3.949231
v -0.056638 -0.091885 -3.890829
v -0.085839 -0.213511 -4.055167
v -0.085839 -0.265193 -4.073804
v -0.137521 -0.265193 -4.055167
v -0.139655 -0.211376 -4.032990
v -0.209432 -0.215343 -3.949231
v -0.178666 -0.211376 -4.000650
v -0.207600 -0.265193 -3.997069
v -0.230080 -0.265193 -3.949231
v 0.130142 -0.601792 -0.795735
v 0.085839 -0.581112 -0.845552
v 0.135689 -0.560463 -0.872662
v 0.245200 -0.486692 -0.910392
v 0.209432 -0.486720 -0.946176
v 0.230080 -0.436870 -0.960234
v 0.259281 -0.436802 -0.931033
v 0.085839 -0.091817 -0.931033
v 0.085839 -0.121019 -0.960234
v 0.056638 -0.091885 -0.960234
v 0.259281 -0.223896 -0.931033
v 0.230080 -0.265193 -0.960234
v 0.209432 -0.215343 -0.960234
v 0.135689 -0.560463 -3.949231
v 0.085839 -0.581112 -3.949231
v 0.085839 -0.558631 -3.997069
v 0.139655 -0.529697 -4.000650
v 0.085839 -0.488552 -4.055167
v 0.085839 -0.436870 -4.073804
v 0.137521 -0.436870 -4.055167
v 0.139655 -0.490687 -4.032990
v 0.209432 -0.486720 -3.949231
v 0.178666 -0.490687 -4.000650
v 0.207600 -0.436870 -3.997069
v 0.230080 -0.436870 -3.949231
v 0.027436 -0.091885 -3.920030
v 0.056638 -0.091885 -3.890829
v 0.085839 -0.121019 -3.949231
v 0.209432 -0.215343 -3.949231
v 0.230080 -0.265193 -3.949231
v 0.207600 -0.265193 -3.997069
v 0.178666 -0.211376 -4.000650
v 0.085839 -0.213511 -4.055167
v 0.139655 -0.211376 -4.032990
v 0.137521 -0.265193 -4.055167
v 0.085839 -0.265193 -4.073804
v -0.056638 0.090201 -0.960234
v -0.085839 0.090201 -0.931033
v -0.085839 0.119402 -0.960234
v -0.259281 0.222346 -0.931033
v -0.230080 0.263643 -0.960234
v -0.209432 0.213794 -0.960234
v -0.130142 0.600243 -0.795735
v -0.085839 0.579562 -0.845552
v -0.135689 0.558914 -0.872662
v -0.245150 0.485310 -0.910460
v -0.209432 0.485171 -0.946176
v -0.230080 0.435321 -0.960234
v -0.259281 0.435444 -0.931033
v -0.056638 0.090201 -3.890829
v -0.085839 0.119402 -3.949231
v -0.027436 0.090201 -3.920030
v -0.209432 0.213794 -3.949231
v -0.230080 0.263643 -3.949231
v -0.207600 0.263643 -3.997069
v -0.178666 0.209827 -4.000650
v -0.085839 0.211961 -4.055167
v -0.139655 0.209827 -4.032990
v -0.137521 0.263643 -4.055167
v -0.085839 0.263643 -4.073804
v -0.135689 0.558914 -3.949231
v -0.085839 0.579562 -3.949231
v -0.085839 0.557082 -3.997069
v -0.139655 0.528148 -4.000650
v -0.085839 0.487003 -4.055167
v -0.085839 0.435321 -4.073804
v -0.137521 0.435321 -4.055167
v -0.139655 0.489137 -4.032990
v -0.209432 0.485171 -3.949231
v -0.178666 0.489137 -4.000650
v -0.207600 0.435321 -3.997069
v -0.230080 0.435321 -3.949231
v 0.056638 0.090201 -0.960234
v 0.085839 0.119402 -0.960234
v 0.085839 0.090201 -0.931033
v 0.259281 0.222346 -0.931033
v 0.209432 0.213794 -0.960234
v 0.230080 0.263643 -0.960234
v 0.130142 0.600243 -0.795735
v 0.135689 0.558914 -0.872662
v 0.085839 0.579562 -0.845552
v 0.245150 0.485310 -0.910460
v 0.259281 0.435444 -0.931033
v 0.230080 0.435321 -0.960234
v 0.209432 0.485171 -0.946176
v 0.027436 0.090201 -3.920030
v 0.085839 0.119402 -3.949231
v 0.056638 0.090201 -3.890829
v 0.085839 0.211961 -4.055167
v 0.085839 0.263643 -4.073804
v 0.137521 0.263643 -4.055167
v 0.139655 0.209827 -4.032990
v 0.209432 0.213794 -3.949231
v 0.178666 0.209827 -4.000650
v 0.207600 0.263643 -3.997069
v 0.230080 0.263643 -3.949231
v 0.085839 0.557082 -3.997069
v 0.085839 0.579562 -3.949231
v 0.135689 0.558914 -3.949231
v 0.139655 0.528148 -4.000650
v 0.209432 0.485171 -3.949231
v 0.230080 0.435321 -3.949231
v 0.207600 0.435321 -3.997069
v 0.178666 0.489137 -4.000650
v 0.085839 0.487003 -4.055167
v 0.139655 0.489137 -4.032990
v 0.137521 0.435321 -4.055167
v 0.085839 0.435321 -4.073804
v -0.085839 0.141883 -3.997069
v -0.085839 0.119402 -3.949231
v -0.135689 0.140050 -3.949231
v -0.139655 0.170817 -4.000650
v -0.127136 0.090201 -0.931033
v -0.135689 0.140050 -0.960234
v -0.085839 0.119402 -0.960234
v 0.135689 0.140050 -3.949231
v 0.085839 0.119402 -3.949231
v 0.085839 0.141883 -3.997069
v 0.139655 0.170816 -4.000650
v 0.127136 0.090201 -0.931033
v 0.085839 0.119402 -0.960234
v 0.135689 0.140050 -0.960234
v -0.127108 -0.091722 -0.931033
v -0.085839 -0.121019 -0.960234
v -0.135688 -0.141600 -0.960234
v -0.135689 -0.141600 -3.949231
v -0.085839 -0.121019 -3.949231
v -0.085839 -0.143432 -3.997069
v -0.139655 -0.172366 -4.000650
v 0.085839 -0.143432 -3.997069
v 0.085839 -0.121019 -3.949231
v 0.135689 -0.141600 -3.949231
v 0.139655 -0.172366 -4.000650
v 0.127108 -0.091722 -0.931033
v 0.135689 -0.141600 -0.960234
v 0.085839 -0.121019 -0.960234
v -0.486166 -0.910387 0.436319
v -0.436317 -0.931036 0.436319
v -0.436317 -0.910387 0.486169
v -0.489361 -0.883350 0.489363
v -0.436317 -0.486166 0.910390
v -0.436317 -0.436317 0.931038
v -0.486166 -0.436317 0.910390
v -0.489361 -0.489361 0.883353
v -0.910387 -0.486166 0.436319
v -0.883350 -0.489361 0.489363
v -0.910387 -0.436317 0.486169
v -0.931036 -0.436317 0.436319
v -0.486166 0.436317 0.910390
v -0.436317 0.436317 0.931038
v -0.436317 0.486166 0.910390
v -0.489361 0.489361 0.883353
v -0.436317 0.910387 0.486169
v -0.436317 0.931036 0.436319
v -0.486166 0.910387 0.436319
v -0.489361 0.883350 0.489363
v -0.910387 0.436317 0.486169
v -0.883350 0.489361 0.489363
v -0.910387 0.486166 0.436319
v -0.931036 0.436317 0.436319
v -0.436317 -0.910387 -0.486164
v -0.436317 -0.931036 -0.436314
v -0.486166 -0.910387 -0.436314
v -0.489361 -0.883350 -0.489358
v -0.910387 -0.486166 -0.436314
v -0.931036 -0.436317 -0.436314
v -0.910387 -0.436317 -0.486164
v -0.883350 -0.489361 -0.489358
v -0.436317 -0.486235 -0.910385
v -0.489361 -0.489361 -0.883348
v -0.486166 -0.436317 -0.910385
v -0.436317 -0.436385 -0.931033
v -0.486166 0.910387 -0.436314
v -0.436317 0.931036 -0.436314
v -0.436317 0.910387 -0.486164
v -0.489361 0.883350 -0.489358
v -0.436317 0.486043 -0.910384
v -0.436317 0.436193 -0.931033
v -0.486166 0.436317 -0.910385
v -0.489361 0.489361 -0.883348
v -0.910387 0.486166 -0.436314
v -0.883350 0.489361 -0.489358
v -0.910387 0.436317 -0.486164
v -0.931036 0.436317 -0.436314
v 0.436317 -0.910387 0.486169
v 0.436317 -0.931036 0.436319
v 0.486166 -0.910387 0.436319
v 0.489361 -0.883350 0.489363
v 0.910387 -0.486166 0.436319
v 0.931036 -0.436317 0.436319
v 0.910387 -0.436317 0.486169
v 0.883350 -0.489361 0.489363
v 0.436317 -0.486166 0.910390
v 0.489361 -0.489361 0.883353
v 0.486166 -0.436317 0.910390
v 0.436317 -0.436317 0.931038
v 0.486166 0.910387 0.436319
v 0.436317 0.931036 0.436319
v 0.436317 0.910387 0.486169
v 0.489361 0.883350 0.489363
v 0.436317 0.486166 0.910390
v 0.436317 0.436317 0.931038
v 0.486166 0.436317 0.910390
v 0.489361 0.489361 0.883353
v 0.910387 0.486166 0.436319
v 0.883350 0.489361 0.489363
v 0.910387 0.436317 0.486169
v 0.931036 0.436317 0.436319
v 0.486166 -0.910387 -0.436314
v 0.436317 -0.931036 -0.436314
v 0.436317 -0.910387 -0.486164
v 0.489361 -0.883350 -0.489358
v 0.436317 -0.486235 -0.910385
v 0.436317 -0.436385 -0.931033
v 0.486166 -0.436317 -0.910385
v 0.489361 -0.489361 -0.883348
v 0.910387 -0.486166 -0.436314
v 0.883350 -0.489361 -0.489358
v 0.910387 -0.436317 -0.486164
v 0.931036 -0.436317 -0.436314
v 0.436317 0.910387 -0.486164
v 0.436317 0.931036 -0.436314
v 0.486166 0.910387 -0.436314
v 0.489361 0.883350 -0.489358
v 0.910387 0.486166 -0.436314
v 0.931036 0.436317 -0.436314
v 0.910387 0.436317 -0.486164
v 0.883350 0.489361 -0.489358
v 0.436317 0.486043 -0.910384
v 0.489361 0.489361 -0.883348
v 0.486166 0.436317 -0.910385
v 0.436317 0.436193 -0.931033
vn -0.0000 -0.0000 -1.0000
vn -0.6382 -0.0000 -0.7698
vn 0.7071 -0.7071 -0.0000
vn 0.6382 -0.0000 -0.7698
vn -0.0000 -1.0000 -0.0000
vn -0.0000 -0.6382 -0.7698
vn -0.5380 -0.5380 -0.6489
vn -0.5380 0.5380 -0.6489
vn 0.5380 0.5380 -0.6489
vn 1.0000 -0.0000 -0.0000
vn 0.5380 -0.5380 -0.6489
vn -1.0000 -0.0000 -0.0000
vn 0.7071 0.7071 -0.0000
vn -0.0000 0.7065 -0.7078
vn -0.0000 0.6382 -0.7698
vn -0.7071 -0.7071 -0.0000
vn -0.0000 1.0000 -0.0000
vn -0.7136 -0.7005 -0.0000
vn -0.7071 0.7071 -0.0000
vn -0.5774 -0.5774 -0.5774
vn -0.0000 0.7071 0.7071
vn -0.7071 -0.0000 -0.7071
vn 0.5774 -0.5774 0.5774
vn 0.5774 -0.5774 -0.5774
vn 0.7071 -0.0000 -0.7071
vn -0.5774 -0.5774 0.5774
vn -0.0000 -0.0000 1.0000
vn 0.5774 0.5774 0.5774
vn -0.7071 -0.0000 0.7071
vn 0.7071 -0.0000 0.7071
vn 0.5774 0.5774 -0.5774
vn -0.5774 0.5774 -0.5774
vn -0.0000 -0.7071 0.7071
vn -0.5774 0.5774 0.5774
vn -0.1116 -0.8787 -0.4641
vn -0.6347 -0.4417 -0.6341
vn -0.5765 0.5778 -0.5778
vn -0.5208 0.2157 -0.8259
vn -0.4002 -0.7997 -0.4476
vn -0.7997 -0.4002 -0.4476
vn -0.3212 -0.3213 -0.8908
vn -0.3009 0.9049 -0.3009
vn -0.3457 0.3457 -0.8723
vn -0.8475 0.3510 -0.3982
vn 0.1116 -0.8787 -0.4641
vn 0.6350 -0.4415 -0.6339
vn 0.5765 0.5778 -0.5778
vn 0.5208 0.2157 -0.8259
vn 0.4002 -0.7997 -0.4476
vn 0.3457 -0.3457 -0.8723
vn 0.8475 -0.3510 -0.3982
vn 0.3009 0.9049 -0.3009
vn 0.7997 0.4002 -0.4476
vn 0.3212 0.3213 -0.8908
vn -0.5774 -0.5773 -0.5774
vn -0.5208 -0.2157 -0.8259
vn -0.1116 0.8787 -0.4641
vn -0.6335 0.4416 -0.6353
vn -0.3015 -0.9045 -0.3015
vn -0.4002 0.7997 -0.4476
vn 0.5774 -0.5773 -0.5774
vn 0.5208 -0.2157 -0.8259
vn 0.1116 0.8787 -0.4641
vn 0.6335 0.4416 -0.6353
vn 0.3015 -0.9045 -0.3015
vn 0.4002 0.7997 -0.4476
vn -0.2157 -0.5208 -0.8259
vn 0.2157 -0.5208 -0.8259
vn -0.2150 0.5207 -0.8262
vn 0.2150 0.5207 -0.8262
vn -0.3976 -0.8270 0.3976
vn -0.3976 -0.3976 0.8270
vn -0.8629 -0.3574 0.3574
vn -0.3976 0.3976 0.8270
vn -0.3976 0.8270 0.3976
vn -0.8629 0.3574 0.3574
vn -0.3976 -0.8270 -0.3976
vn -0.8270 -0.3976 -0.3976
vn -0.3578 -0.3573 -0.8627
vn -0.3976 0.8270 -0.3976
vn -0.3968 0.3978 -0.8273
vn -0.8629 0.3574 -0.3574
vn 0.3976 -0.8270 0.3976
vn 0.8270 -0.3976 0.3976
vn 0.3574 -0.3574 0.8629
vn 0.3976 0.8270 0.3976
vn 0.3976 0.3976 0.8270
vn 0.8629 0.3574 0.3574
vn 0.3976 -0.8270 -0.3976
vn 0.3980 -0.3975 -0.8268
vn 0.8629 -0.3574 -0.3574
vn 0.3976 0.8270 -0.3976
vn 0.8270 0.3976 -0.3976
vn 0.3566 0.3575 -0.8631
vn -0.4091 -0.8161 -0.4083
vn -0.5000 0.5000 -0.7071
vn -0.2802 -0.6127 -0.7390
vn -0.6635 -0.6635 -0.3458
vn -0.6127 -0.2802 -0.7390
vn -0.6635 0.6635 -0.3458
vn -0.2802 0.6127 -0.7390
vn -0.6127 0.2802 -0.7390
vn 0.4088 -0.8159 -0.4089
vn 0.5000 0.5000 -0.7071
vn 0.6635 -0.6635 -0.3458
vn 0.2802 -0.6127 -0.7390
vn 0.6127 -0.2802 -0.7390
vn 0.2802 0.6127 -0.7390
vn 0.6635 0.6635 -0.3458
vn 0.6127 0.2802 -0.7390
vn -0.3827 -0.9239 -0.0000
vn -0.9239 -0.3827 -0.0000
vn -0.3816 0.9243 -0.0000
vn -0.9239 0.3827 -0.0000
vn -0.3392 -0.0000 -0.9407
vn -0.9050 -0.0000 -0.4253
vn -0.0000 -0.9050 -0.4253
vn -0.0000 -0.3392 -0.9407
vn -0.0000 0.9055 -0.4243
vn -0.0000 0.3392 -0.9407
vn 0.9050 -0.0000 -0.4253
vn 0.3392 -0.0000 -0.9407
vn 0.3827 -0.9239 -0.0000
vn 0.9239 -0.3827 -0.0000
vn 0.3816 0.9243 -0.0000
vn 0.9239 0.3827 -0.0000
vn -0.0000 -0.9236 -0.3834
vn -0.5000 -0.5000 -0.7071
vn -0.4076 0.8163 -0.4092
vn 0.5000 -0.5000 -0.7071
vn 0.4071 0.8161 -0.4103
vn -0.3827 0.9239 -0.0000
vn -0.0000 0.9050 -0.4253
vn 0.3827 0.9239 -0.0000
vn -0.0000 0.9236 -0.3834
vn -0.0000 -0.7071 -0.7071
vn -0.9915 -0.1299 -0.0000
vn -0.7063 0.7079 -0.0000
vn -0.0000 0.7079 -0.7063
vn 0.7063 0.7079 -0.0000
vn 0.0016 0.7071 -0.7071
vn 0.2675 0.6906 -0.6719
vn -0.6739 -0.6739 0.3029
vn -0.3029 -0.6739 0.6739
vn -0.6739 -0.3029 0.6739
vn -0.6739 0.3029 0.6739
vn -0.3029 0.6739 0.6739
vn -0.6739 0.6739 0.3029
vn -0.3037 -0.6737 -0.6737
vn -0.6739 -0.6739 -0.3029
vn -0.6739 -0.3029 -0.6739
vn -0.6739 0.6739 -0.3029
vn -0.3029 0.6739 -0.6739
vn -0.6739 0.3029 -0.6739
vn 0.3029 -0.6739 0.6739
vn 0.6739 -0.6739 0.3029
vn 0.6739 -0.3029 0.6739
vn 0.6739 0.6739 0.3029
vn 0.3029 0.6739 0.6739
vn 0.6739 0.3029 0.6739
vn 0.6739 -0.6739 -0.3029
vn 0.3029 -0.6739 -0.6738
vn 0.6739 -0.3029 -0.6739
vn 0.3015 0.6741 -0.6743
vn 0.6739 0.6739 -0.3029
vn 0.6739 0.3029 -0.6739
vn -0.0010 -0.3825 -0.9239
vn 0.0011 0.3811 -0.9245
vn 0.0010 -0.3825 -0.9239
vn -0.0011 0.3811 -0.9245
vn -0.3827 -0.0000 0.9239
vn -0.9239 -0.0000 0.3827
vn -0.3827 -0.0000 -0.9239
vn -0.9239 -0.0000 -0.3827
vn 0.9239 -0.0000 -0.3827
vn 0.3827 -0.0000 -0.9239
vn 0.3827 -0.0000 0.9239
vn 0.9239 -0.0000 0.3827
vn -0.0000 -0.9239 -0.3827
vn -0.0000 0.9239 -0.3827
vn -0.0000 -0.9239 0.3827
vn -0.0000 -0.3827 0.9239
vn -0.0000 0.9239 0.3827
vn -0.0000 0.3827 0.9239
vn -0.0000 -0.7082 -0.7060
vn -0.9368 -0.3500 -0.0000
vn -0.0000 -0.6382 -0.7699
vn 0.0024 0.7053 -0.7090
vn 0.0011 0.7070 -0.7072
vn -0.0011 0.7070 -0.7072
vn -0.0024 0.7053 -0.7090
vn -0.0000 0.6382 -0.7699
vn 0.1208 0.9927 -0.0000
vn -0.6350 -0.4415 -0.6339
vn -0.3510 -0.8475 -0.3982
vn -0.8475 -0.3510 -0.3982
vn -0.3457 -0.3457 -0.8723
vn -0.3212 0.3213 -0.8908
vn -0.7997 0.4002 -0.4476
vn 0.6347 -0.4417 -0.6341
vn 0.3510 -0.8475 -0.3982
vn 0.3212 -0.3213 -0.8908
vn 0.7997 -0.4002 -0.4476
vn 0.8475 0.3510 -0.3982
vn 0.3457 0.3457 -0.8723
vn -0.6335 0.4416 -0.6354
vn -0.3510 0.8475 -0.3982
vn 0.6335 0.4416 -0.6354
vn 0.3510 0.8475 -0.3982
vn -0.3502 0.8482 -0.3974
vn 0.3502 0.8482 -0.3974
vn -0.3574 -0.8629 0.3574
vn -0.3574 -0.3574 0.8629
vn -0.8270 -0.3976 0.3976
vn -0.3574 0.3574 0.8629
vn -0.3574 0.8629 0.3574
vn -0.8270 0.3976 0.3976
vn -0.3574 -0.8629 -0.3574
vn -0.8629 -0.3574 -0.3574
vn -0.3980 -0.3975 -0.8268
vn -0.3574 0.8629 -0.3574
vn -0.3566 0.3575 -0.8631
vn -0.8270 0.3976 -0.3976
vn 0.3574 -0.8629 0.3574
vn 0.8629 -0.3574 0.3574
vn 0.3976 -0.3976 0.8270
vn 0.3574 0.8629 0.3574
vn 0.3574 0.3574 0.8629
vn 0.8270 0.3976 0.3976
vn 0.3574 -0.8629 -0.3574
vn 0.3578 -0.3573 -0.8627
vn 0.8270 -0.3976 -0.3976
vn 0.3574 0.8629 -0.3574
vn 0.8629 0.3574 -0.3574
vn 0.3968 0.3978 -0.8273
vn -0.4088 -0.8159 -0.4089
vn 0.4091 -0.8161 -0.4083
vn -0.4071 0.8161 -0.4103
vn 0.4076 0.8163 -0.4092
vn -0.9336 -0.2446 -0.2617
vn -0.0016 0.7071 -0.7071
vn -0.3029 -0.6739 -0.6738
vn -0.3015 0.6741 -0.6743
vn 0.3037 -0.6737 -0.6737
vn 0.3029 0.6739 -0.6739
vn -0.0009 -0.3827 -0.9239
vn 0.0016 0.3827 -0.9239
vn 0.0009 -0.3827 -0.9239
vn -0.0016 0.3827 -0.9239
vn 0.0017 -0.7066 -0.7076
vn 0.0021 -0.7072 -0.7070
vn -0.0021 -0.7072 -0.7070
vn -0.0017 -0.7066 -0.7076
vt 0.441202 0.467641
vt 0.530160 0.642979
vt 0.455268 0.642977
vt 0.700711 0.630952
vt 0.540218 0.169070
vt 0.289543 0.647702
vt 0.264906 0.566540
vt 0.235094 0.566540
vt 0.235094 0.566540
vt 0.453365 0.288073
vt 0.546635 0.211927
vt 0.546635 0.288073
vt 0.334936 0.563669
vt 0.415064 0.686066
vt 0.334936 0.686081
vt 0.453365 0.538073
vt 0.546635 0.461927
vt 0.546635 0.538073
vt 0.203365 0.684310
vt 0.203365 0.564520
vt 0.296635 0.563654
vt 0.203365 0.686346
vt 0.203365 0.563654
vt 0.203365 0.550287
vt 0.296635 0.512213
vt 0.296635 0.550286
vt 0.546635 0.328365
vt 0.453365 0.421635
vt 0.453365 0.328365
vt 0.174127 0.547940
vt 0.152933 0.547940
vt 0.174127 0.526746
vt 0.597067 0.202060
vt 0.575873 0.223254
vt 0.575873 0.202060
vt 0.597067 0.450873
vt 0.575873 0.472067
vt 0.575873 0.450873
vt 0.546635 0.563698
vt 0.453365 0.686302
vt 0.453365 0.563698
vt 0.325873 0.547940
vt 0.325873 0.526746
vt 0.347067 0.547940
vt 0.546635 0.063698
vt 0.453365 0.186302
vt 0.453365 0.063698
vt 0.665064 0.563669
vt 0.584936 0.686066
vt 0.584936 0.563683
vt 0.296635 0.564520
vt 0.681079 0.549400
vt 0.667967 0.635837
vt 0.749013 0.565589
vt 0.597067 0.202060
vt 0.575873 0.223254
vt 0.575873 0.202060
vt 0.453365 0.288073
vt 0.612787 0.421635
vt 0.574713 0.328365
vt 0.612787 0.328365
vt 0.453365 0.538073
vt 0.546635 0.538073
vt 0.184728 0.683579
vt 0.127772 0.566420
vt 0.184728 0.566420
vt 0.546635 0.063698
vt 0.453365 0.186302
vt 0.453365 0.063698
vt 0.796635 0.563654
vt 0.703365 0.686346
vt 0.703365 0.563654
vt 0.296635 0.512214
vt 0.296635 0.550287
vt 0.546635 0.328365
vt 0.453365 0.328365
vt 0.296635 0.684310
vt 0.296635 0.684310
vt 0.597067 0.450873
vt 0.575873 0.472067
vt 0.575873 0.450873
vt 0.546635 0.563698
vt 0.453365 0.686302
vt 0.453365 0.563698
vt 0.347067 0.547940
vt 0.700315 0.684691
vt 0.700315 0.564132
vt 0.700315 0.564132
vt 0.176282 0.686302
vt 0.136218 0.563698
vt 0.176282 0.563698
vt 0.174127 0.547940
vt 0.152933 0.547940
vt 0.334936 0.563698
vt 0.415064 0.686302
vt 0.334936 0.686302
vt 0.799685 0.564132
vt 0.799685 0.684691
vt 0.799685 0.564132
vt 0.613782 0.063698
vt 0.573718 0.186302
vt 0.573718 0.063698
vt 0.665064 0.686302
vt 0.584936 0.563698
vt 0.665064 0.563698
vt 0.184299 0.559299
vt 0.131402 0.559299
vt 0.184299 0.506402
vt 0.219229 0.567682
vt 0.219229 0.682318
vt 0.219229 0.682318
vt 0.308579 0.566421
vt 0.191421 0.683579
vt 0.191421 0.566421
vt 0.622228 0.933580
vt 0.565272 0.816420
vt 0.622228 0.816421
vt 0.441421 0.306956
vt 0.558580 0.193044
vt 0.558580 0.306955
vt 0.315701 0.690701
vt 0.368598 0.690701
vt 0.315701 0.743598
vt 0.318044 0.566421
vt 0.431955 0.683579
vt 0.318044 0.683579
vt 0.315701 0.559299
vt 0.315701 0.506402
vt 0.368598 0.559299
vt 0.441421 0.556956
vt 0.558579 0.443044
vt 0.558580 0.556956
vt 0.558580 0.566421
vt 0.441421 0.683579
vt 0.441421 0.566421
vt 0.808580 0.566421
vt 0.691421 0.683579
vt 0.691421 0.566421
vt 0.184299 0.690701
vt 0.184299 0.743598
vt 0.131402 0.690701
vt 0.558580 0.816421
vt 0.441421 0.933580
vt 0.441421 0.816421
vt 0.176282 0.563669
vt 0.136218 0.686066
vt 0.136218 0.563683
vt 0.613782 0.186331
vt 0.573718 0.063934
vt 0.613782 0.063919
vt 0.618598 0.809299
vt 0.565701 0.809299
vt 0.565701 0.756402
vt 0.558580 0.002772
vt 0.441421 0.059728
vt 0.441421 0.002772
vt 0.441421 0.806956
vt 0.558580 0.693045
vt 0.558580 0.806955
vt 0.618598 0.440701
vt 0.565701 0.493598
vt 0.565701 0.440701
vt 0.618598 0.190701
vt 0.565701 0.243598
vt 0.565701 0.190701
vt 0.308579 0.690272
vt 0.191421 0.747228
vt 0.191421 0.690272
vt 0.280771 0.682318
vt 0.280771 0.567682
vt 0.280771 0.567682
vt 0.681956 0.683579
vt 0.568044 0.566420
vt 0.681956 0.566420
vt 0.565701 0.006402
vt 0.618598 0.059299
vt 0.565701 0.059299
vt 0.558580 0.066421
vt 0.441421 0.183579
vt 0.441421 0.066421
vt 0.622228 0.183579
vt 0.565272 0.066421
vt 0.622228 0.066421
vt 0.221035 0.604509
vt 0.258225 0.510686
vt 0.203365 0.687500
vt 0.393020 0.151075
vt 0.437427 0.062628
vt 0.418481 0.110048
vt 0.799715 0.685872
vt 0.786900 0.683083
vt 0.562500 0.063698
vt 0.562500 0.062500
vt 0.125000 0.562500
vt 0.145653 0.562500
vt 0.187500 0.512213
vt 0.175286 0.512214
vt 0.187500 0.500000
vt 0.786871 0.565763
vt 0.786900 0.566920
vt 0.562500 0.312500
vt 0.562500 0.274859
vt 0.562500 0.186302
vt 0.546635 0.187500
vt 0.546635 0.186302
vt 0.318621 0.655869
vt 0.296635 0.686346
vt 0.425958 0.660772
vt 0.446191 0.656264
vt 0.700285 0.685872
vt 0.713100 0.683083
vt 0.546635 0.686302
vt 0.584936 0.686302
vt 0.312500 0.563654
vt 0.296635 0.562500
vt 0.312500 0.562500
vt 0.312500 0.500000
vt 0.312500 0.518821
vt 0.415064 0.563683
vt 0.437500 0.562500
vt 0.437500 0.563698
vt 0.732142 0.565760
vt 0.713129 0.565763
vt 0.562500 0.562500
vt 0.562500 0.517529
vt 0.562500 0.421635
vt 0.546635 0.437500
vt 0.546635 0.421635
vt 0.219229 0.683460
vt 0.219229 0.682318
vt 0.256695 0.566829
vt 0.180527 0.608176
vt 0.136218 0.687500
vt 0.625000 0.062500
vt 0.625000 0.063654
vt 0.531050 0.140657
vt 0.562500 0.078595
vt 0.145653 0.562500
vt 0.187500 0.512213
vt 0.625000 0.187500
vt 0.604347 0.187500
vt 0.546635 0.186302
vt 0.301009 0.674102
vt 0.665064 0.686081
vt 0.552485 0.656264
vt 0.570608 0.655679
vt 0.415064 0.563698
vt 0.625000 0.437500
vt 0.602514 0.437500
vt 0.546635 0.421635
vt 0.203365 0.684310
vt 0.310177 0.562796
vt 0.331863 0.665042
vt 0.625000 0.063698
vt 0.613782 0.187500
vt 0.612787 0.199713
vt 0.687500 0.687500
vt 0.687500 0.686302
vt 0.187500 0.747228
vt 0.184728 0.747228
vt 0.127772 0.687500
vt 0.127772 0.690272
vt 0.125000 0.687500
vt 0.562500 0.000000
vt 0.562500 0.004802
vt 0.622228 0.059728
vt 0.622228 0.062500
vt 0.558580 0.059728
vt 0.192648 0.558715
vt 0.129802 0.562500
vt 0.187500 0.502777
vt 0.184728 0.502772
vt 0.187500 0.500000
vt 0.625000 0.187500
vt 0.624863 0.203939
vt 0.620198 0.197103
vt 0.562500 0.281585
vt 0.558579 0.312500
vt 0.562500 0.183579
vt 0.558579 0.187500
vt 0.558580 0.183579
vt 0.308580 0.687500
vt 0.312500 0.683580
vt 0.312500 0.687500
vt 0.372228 0.687500
vt 0.372228 0.690272
vt 0.308579 0.747228
vt 0.312500 0.750000
vt 0.308579 0.750000
vt 0.625000 0.812500
vt 0.620198 0.812500
vt 0.562500 0.816420
vt 0.558579 0.812500
vt 0.562500 0.812500
vt 0.562500 0.687500
vt 0.558580 0.687500
vt 0.312500 0.566421
vt 0.308579 0.562500
vt 0.430604 0.467001
vt 0.437500 0.437500
vt 0.427897 0.447103
vt 0.431956 0.566421
vt 0.437500 0.562500
vt 0.437500 0.566421
vt 0.687500 0.562500
vt 0.677897 0.552897
vt 0.562500 0.552897
vt 0.562500 0.468415
vt 0.558579 0.437500
vt 0.557144 0.467649
vt 0.203365 0.512213
vt 0.137213 0.550287
vt 0.613782 0.186302
vt 0.574713 0.237787
vt 0.562500 0.232471
vt 0.396194 0.562500
vt 0.324714 0.512214
vt 0.574713 0.421635
vt 0.646194 0.562500
vt 0.176282 0.686081
vt 0.125000 0.686302
vt 0.445163 0.094690
vt 0.625000 0.186302
vt 0.453365 0.211927
vt 0.296635 0.500000
vt 0.203365 0.500000
vt 0.625000 0.328365
vt 0.453365 0.461927
vt 0.700315 0.684691
vt 0.136218 0.686302
vt 0.567259 0.062500
vt 0.203365 0.512214
vt 0.573718 0.186317
vt 0.574713 0.237787
vt 0.612787 0.199713
vt 0.125000 0.563698
vt 0.506973 0.141824
vt 0.625000 0.186346
vt 0.453365 0.211927
vt 0.625000 0.328365
vt 0.453365 0.461927
vt 0.546635 0.686302
vt 0.796635 0.686346
vt 0.283891 0.667104
vt 0.375556 0.674105
vt 0.786871 0.566921
vt 0.786871 0.683079
vt 0.767861 0.565763
vt 0.713129 0.566921
vt 0.722963 0.674237
vt 0.264906 0.566540
vt 0.127772 0.683580
vt 0.565272 0.002772
vt 0.211096 0.462595
vt 0.127772 0.559728
vt 0.565272 0.183579
vt 0.567302 0.302897
vt 0.562500 0.302897
vt 0.315272 0.687500
vt 0.315272 0.747228
vt 0.622228 0.809728
vt 0.565272 0.752772
vt 0.562500 0.802897
vt 0.427897 0.562500
vt 0.322103 0.552897
vt 0.313540 0.559202
vt 0.437500 0.447103
vt 0.441421 0.443044
vt 0.572103 0.447103
vt 0.567358 0.463859
vt 0.677897 0.562500
vt 0.406420 0.116891
vt 0.566441 0.287070
vt 0.578804 0.124948
vt 0.558580 0.000000
vt 0.441421 0.000000
vt 0.554094 0.294181
vt 0.441421 0.193044
vt 0.558580 0.683580
vt 0.441421 0.693045
vt 0.125000 0.566421
vt 0.125000 0.683579
vt 0.625000 0.183579
vt 0.625000 0.066421
vt 0.308580 0.683580
vt 0.568044 0.683580
vt 0.685540 0.550738
vt 0.626960 0.199262
vt 0.191421 0.750000
vt 0.625000 0.933580
vt 0.625000 0.816421
vt 0.565272 0.933579
vt 0.558579 0.933579
vt 0.500813 0.665033
vt 0.441019 0.286570
vt 0.219229 0.567682
vt 0.808580 0.683580
vt 0.280771 0.682318
vt 0.546635 0.312500
vt 0.562500 0.187500
vt 0.546635 0.562500
vt 0.562500 0.437500
vt 0.546635 0.312500
vt 0.625000 0.421635
vt 0.625000 0.421635
vt 0.187500 0.750000
vt 0.625000 0.062500
vt 0.562500 0.187500
vt 0.375000 0.687500
vt 0.312500 0.745198
vt 0.562500 0.697103
vt 0.437500 0.468434
vt 0.558580 0.562500
vt 0.353806 0.562500
vt 0.362787 0.550287
vt 0.603806 0.562500
vt 0.562500 0.475141
vt 0.732139 0.565763
vt 0.713129 0.683079
vt 0.562500 0.197103
vt 0.322103 0.562500
vt 0.437500 0.552897
vt 0.572103 0.562500
vt 0.562500 0.447103
vt 0.218434 0.445865
s 0
usemtl マテリアル.001
f 250/1/1 47/2/1 112/3/1
f 159/4/1 13/5/1 149/6/1
f 122/7/1 26/8/1 88/9/1
f 24/10/2 35/11/2 31/12/2
f 50/13/3 41/14/3 39/15/3
f 60/16/4 71/17/4 67/18/4
f 75/19/5 146/20/5 87/20/5
f 51/21/5 3/22/5 15/23/5
f 14/24/6 54/25/6 52/26/6
f 30/27/1 55/28/1 25/29/1
f 17/30/7 21/31/7 23/32/7
f 165/33/8 32/34/8 34/35/8
f 169/36/9 68/37/9 70/38/9
f 66/39/10 42/40/10 61/41/10
f 53/42/11 57/43/11 59/44/11
f 12/45/12 19/46/12 6/47/12
f 135/48/13 121/49/13 137/50/13
f 123/51/5 146/20/5 153/51/5
f 257/52/14 115/53/14 79/54/14
f 100/55/8 104/56/8 106/57/8
f 95/58/2 107/11/2 103/12/2
f 133/59/15 101/60/15 99/61/15
f 131/62/4 143/17/4 139/63/4
f 173/64/16 201/65/16 199/66/16
f 84/67/12 90/68/12 77/69/12
f 98/70/17 117/71/17 134/72/17
f 145/24/6 125/73/6 154/74/6
f 102/75/1 126/28/1 96/76/1
f 123/51/18 157/77/18 110/78/18
f 136/79/9 140/80/9 142/81/9
f 138/82/10 114/83/10 132/84/10
f 155/42/11 128/43/11 130/85/11
f 45/86/17 167/87/17 64/88/17
f 150/89/16 89/90/16 147/91/16
f 148/92/7 92/93/7 94/32/7
f 152/94/3 113/95/3 158/96/3
f 27/97/17 160/98/17 10/98/17
f 64/88/17 163/99/17 27/97/17
f 161/100/19 33/101/19 11/102/19
f 166/59/15 29/60/15 164/61/15
f 171/103/13 65/104/13 168/105/13
f 200/106/20 204/107/20 206/108/20
f 86/109/12 9/110/12 73/111/12
f 246/112/5 174/113/5 198/114/5
f 189/115/21 237/116/21 235/117/21
f 207/118/22 219/119/22 215/120/22
f 224/121/23 228/122/23 230/123/23
f 245/124/3 225/125/3 223/126/3
f 248/127/24 252/128/24 254/129/24
f 255/130/25 267/131/25 263/132/25
f 262/133/10 226/134/10 256/135/10
f 210/136/17 234/137/17 258/138/17
f 176/139/26 180/140/26 182/141/26
f 238/142/27 178/143/27 232/144/27
f 16/145/16 7/146/16 18/147/16
f 97/148/19 83/149/19 81/150/19
f 236/151/28 240/152/28 242/153/28
f 185/154/29 183/155/29 179/156/29
f 231/157/30 243/158/30 239/159/30
f 260/160/31 264/161/31 266/162/31
f 212/163/32 216/164/32 218/165/32
f 221/166/33 177/167/33 175/168/33
f 109/169/10 63/170/10 124/171/10
f 233/172/13 261/173/13 259/174/13
f 188/175/34 192/176/34 194/177/34
f 196/178/12 202/179/12 184/180/12
f 209/181/19 195/182/19 191/183/19
f 1/184/35 2/185/35 3/186/35
f 4/187/36 6/188/36 7/189/36
f 8/190/37 9/191/37 10/98/37
f 11/192/38 12/45/38 13/193/38
f 14/24/39 16/145/39 17/30/39
f 18/147/40 20/194/40 21/195/40
f 22/196/41 24/197/41 25/198/41
f 26/199/42 27/97/42 28/200/42
f 29/201/43 31/12/43 32/202/43
f 33/203/44 35/204/44 36/205/44
f 37/206/45 38/207/45 39/15/45
f 40/208/46 42/40/46 43/209/46
f 44/210/47 45/86/47 46/211/47
f 47/2/48 48/212/48 49/213/48
f 50/214/49 52/215/49 53/216/49
f 54/25/50 56/217/50 57/218/50
f 58/219/51 60/220/51 61/221/51
f 62/222/52 63/223/52 64/88/52
f 65/224/53 67/18/53 68/225/53
f 69/226/54 71/227/54 72/228/54
f 73/111/55 74/229/55 75/230/55
f 76/231/56 77/232/56 78/233/56
f 79/234/57 80/235/57 81/150/57
f 83/193/58 85/236/58 82/237/58
f 86/109/59 87/20/59 88/9/59
f 89/90/40 91/194/40 92/238/40
f 93/239/41 95/197/41 96/198/41
f 97/148/60 99/240/60 100/241/60
f 101/201/43 103/12/43 104/202/43
f 105/203/44 107/204/44 108/242/44
f 109/169/61 110/78/61 111/243/61
f 112/3/62 113/95/62 114/83/62
f 115/53/63 116/244/63 117/71/63
f 119/245/64 121/49/64 118/246/64
f 122/7/65 123/51/65 124/171/65
f 125/73/50 127/217/50 128/218/50
f 129/247/51 131/220/51 132/221/51
f 133/59/66 135/248/66 136/249/66
f 137/224/53 139/63/53 140/225/53
f 141/226/54 143/227/54 144/250/54
f 145/24/39 147/91/39 148/92/39
f 149/6/67 150/89/67 151/251/67
f 152/252/49 154/215/49 155/216/49
f 156/253/68 157/77/68 158/96/68
f 159/234/69 160/254/69 161/100/69
f 162/255/60 164/256/60 165/33/60
f 166/59/66 168/248/66 169/249/66
f 170/257/70 171/103/70 172/258/70
f 173/64/71 175/168/71 176/139/71
f 177/259/72 179/260/72 180/140/72
f 181/261/73 183/262/73 184/263/73
f 185/154/74 187/264/74 188/265/74
f 189/266/75 191/267/75 192/176/75
f 193/268/76 195/182/76 196/178/76
f 197/269/77 199/66/77 200/106/77
f 201/65/78 203/194/78 204/270/78
f 205/271/79 207/272/79 208/273/79
f 209/274/80 211/275/80 212/276/80
f 213/277/81 215/278/81 216/201/81
f 217/279/82 219/280/82 220/281/82
f 221/282/83 223/283/83 224/284/83
f 225/285/84 227/286/84 228/122/84
f 229/287/85 231/288/85 232/289/85
f 233/290/86 235/117/86 236/291/86
f 237/292/87 239/293/87 240/294/87
f 241/295/88 243/158/88 244/296/88
f 245/297/89 247/298/89 248/216/89
f 249/299/90 251/300/90 252/301/90
f 253/302/91 255/303/91 256/304/91
f 257/52/92 259/305/92 260/306/92
f 261/224/93 263/132/93 264/307/93
f 265/308/94 267/309/94 268/310/94
f 2/185/95 4/187/95 7/189/95
f 161/100/96 13/193/96 159/234/96
f 22/311/97 17/30/97 23/32/97
f 18/147/98 17/30/98 16/145/98
f 24/197/99 21/31/99 20/312/99
f 162/313/100 34/35/100 33/101/100
f 29/314/101 165/33/101 164/256/101
f 31/12/102 34/315/102 32/202/102
f 39/15/103 40/208/103 37/206/103
f 171/103/104 47/2/104 49/213/104
f 50/13/105 59/316/105 58/219/105
f 54/25/106 53/42/106 52/26/106
f 56/317/107 59/44/107 57/43/107
f 69/318/108 169/36/108 70/38/108
f 65/104/109 169/319/109 168/105/109
f 71/17/110 68/225/110 67/18/110
f 15/23/111 2/320/111 16/145/111
f 6/321/112 18/147/112 7/146/112
f 12/45/22 5/322/22 13/5/22
f 163/323/113 161/100/113 160/254/113
f 12/45/114 33/101/114 36/205/114
f 25/29/115 31/12/115 30/27/115
f 36/205/116 20/324/116 19/46/116
f 51/21/117 14/24/117 52/26/117
f 55/325/118 22/311/118 25/326/118
f 163/327/119 166/59/119 164/61/119
f 30/27/120 69/318/120 72/228/120
f 61/41/121 67/18/121 66/39/121
f 72/228/122 56/328/122 55/28/122
f 51/21/123 39/15/123 38/207/123
f 42/40/124 58/219/124 61/41/124
f 172/329/125 168/105/125 167/87/125
f 66/39/126 49/213/126 48/212/126
f 48/212/25 43/209/25 42/40/25
f 38/207/127 1/184/127 3/22/127
f 150/89/128 76/231/128 78/330/128
f 81/150/129 82/331/129 79/234/129
f 93/332/97 148/92/97 94/32/97
f 89/90/98 148/92/98 147/91/98
f 95/197/99 92/93/99 91/312/99
f 97/148/100 106/57/100 105/333/100
f 101/334/101 100/55/101 99/335/101
f 103/12/102 106/315/102 104/202/102
f 158/96/130 112/3/130 156/253/130
f 116/244/131 118/246/131 121/49/131
f 152/94/105 130/316/105 129/247/105
f 125/73/106 155/42/106 154/74/106
f 127/317/107 130/85/107 128/43/107
f 141/318/108 136/79/108 142/81/108
f 137/50/109 136/319/109 135/48/109
f 143/17/110 140/225/110 139/63/110
f 151/251/111 147/91/111 146/20/111
f 90/336/112 78/330/112 77/321/112
f 77/232/22 85/236/22 84/337/22
f 98/338/132 81/150/132 80/235/132
f 84/67/114 105/333/114 108/242/114
f 96/76/115 103/12/115 102/75/115
f 90/68/116 107/11/116 91/339/116
f 153/51/117 145/24/117 154/74/117
f 126/325/118 93/332/118 96/326/118
f 98/340/133 133/59/133 99/61/133
f 102/75/120 141/318/120 144/250/120
f 138/82/121 131/62/121 139/63/121
f 144/250/122 127/341/122 126/28/122
f 157/77/123 152/94/123 158/96/123
f 114/83/124 129/247/124 132/84/124
f 134/72/134 116/244/134 135/48/134
f 120/342/126 137/50/126 121/49/126
f 114/83/25 119/245/25 112/3/25
f 80/343/135 115/53/135 117/71/135
f 86/109/16 75/19/16 87/20/16
f 122/7/136 87/20/136 123/51/136
f 124/171/3 110/78/3 109/169/3
f 74/344/137 151/251/137 75/19/137
f 111/243/136 157/77/136 156/253/136
f 26/8/22 86/109/22 88/9/22
f 8/229/22 73/111/22 9/110/22
f 44/345/25 109/169/25 111/243/25
f 28/346/138 10/98/138 9/347/138
f 26/348/139 64/88/139 27/97/139
f 63/349/140 45/86/140 64/88/140
f 8/350/141 160/98/141 159/4/141
f 44/210/142 172/329/142 45/86/142
f 122/7/25 63/170/25 62/351/25
f 173/64/143 182/141/143 181/352/143
f 177/167/144 176/139/144 175/168/144
f 183/262/145 180/140/145 179/260/145
f 185/154/146 194/177/146 193/268/146
f 189/266/147 188/175/147 187/353/147
f 195/182/148 192/176/148 191/183/148
f 205/354/149 200/106/149 206/108/149
f 201/65/150 200/106/150 199/66/150
f 207/272/151 204/107/151 203/355/151
f 209/181/152 218/165/152 217/356/152
f 211/275/153 216/357/153 212/276/153
f 219/119/154 216/358/154 215/120/154
f 221/166/155 230/123/155 229/287/155
f 225/285/156 224/121/156 223/359/156
f 231/360/157 228/122/157 227/286/157
f 233/361/158 242/153/158 241/362/158
f 237/116/159 236/151/159 235/117/159
f 243/158/160 240/363/160 239/159/160
f 245/124/161 254/364/161 253/302/161
f 249/299/162 248/365/162 247/366/162
f 255/130/163 252/367/163 251/368/163
f 257/52/164 266/369/164 265/370/164
f 261/173/165 260/371/165 259/174/165
f 267/131/166 264/307/166 263/132/166
f 205/354/167 5/372/167 4/187/167
f 85/236/168 213/373/168 82/374/168
f 43/209/169 249/299/169 40/208/169
f 265/370/170 119/245/170 118/246/170
f 186/375/171 179/156/171 178/376/171
f 184/180/172 193/268/172 196/178/172
f 214/377/173 207/118/173 215/120/173
f 220/281/174 203/378/174 202/179/174
f 256/135/175 263/132/175 262/133/175
f 268/310/176 251/368/176 250/1/176
f 232/144/177 239/159/177 238/142/177
f 244/379/178 227/380/178 226/134/178
f 174/113/111 199/66/111 198/114/111
f 202/381/112 181/352/112 184/382/112
f 210/383/132 191/183/132 190/384/132
f 196/178/114 217/356/114 220/281/114
f 246/112/123 223/126/123 222/385/123
f 226/134/124 253/302/124 256/135/124
f 234/137/134 259/174/134 258/138/134
f 262/133/126 241/386/126 244/379/126
f 198/114/179 247/366/179 246/112/179
f 258/387/180 211/275/180 210/388/180
f 222/385/181 175/168/181 174/113/181
f 178/389/182 229/287/182 232/289/182
f 190/390/183 235/117/183 234/391/183
f 238/142/184 187/392/184 186/393/184
f 1/184/185 37/206/185 197/269/185
f 170/394/1 44/345/1 111/243/1
f 170/394/1 111/243/1 156/253/1
f 250/1/1 43/209/1 47/2/1
f 47/2/1 170/394/1 156/253/1
f 112/3/1 119/245/1 268/310/1
f 47/2/1 156/253/1 112/3/1
f 268/310/1 250/1/1 112/3/1
f 13/5/1 5/322/1 208/395/1
f 208/395/1 214/377/1 76/231/1
f 214/377/1 85/236/1 76/231/1
f 13/5/1 208/395/1 76/231/1
f 149/6/1 74/344/1 159/4/1
f 74/344/1 8/350/1 159/4/1
f 13/5/1 76/231/1 149/6/1
f 122/7/1 62/351/1 26/8/1
f 24/10/2 20/324/2 35/11/2
f 50/13/3 58/219/3 41/14/3
f 60/16/4 56/328/4 71/17/4
f 75/19/186 151/251/186 146/20/186
f 51/21/5 38/207/5 3/22/5
f 14/24/187 22/311/187 54/25/187
f 30/27/1 72/228/1 55/28/1
f 66/39/10 48/212/10 42/40/10
f 12/45/12 36/205/12 19/46/12
f 135/48/13 116/244/13 121/49/13
f 123/51/17 87/20/17 146/20/17
f 79/54/188 82/374/188 213/373/188
f 213/373/189 211/275/189 79/54/189
f 211/275/14 257/52/14 79/54/14
f 257/52/190 265/370/190 115/53/190
f 265/370/191 118/246/191 115/53/191
f 95/58/2 91/339/2 107/11/2
f 133/59/192 141/318/192 101/60/192
f 131/62/4 127/341/4 143/17/4
f 173/64/16 181/352/16 201/65/16
f 84/67/12 108/242/12 90/68/12
f 98/70/17 80/343/17 117/71/17
f 145/24/187 93/332/187 125/73/187
f 102/75/1 144/250/1 126/28/1
f 123/51/5 153/51/5 157/77/5
f 138/82/10 120/342/10 114/83/10
f 45/86/193 172/329/193 167/87/193
f 150/89/16 78/330/16 89/90/16
f 152/94/3 129/247/3 113/95/3
f 27/97/17 163/99/17 160/98/17
f 64/88/17 167/87/17 163/99/17
f 161/100/19 162/313/19 33/101/19
f 166/59/192 69/318/192 29/60/192
f 171/103/13 49/213/13 65/104/13
f 86/109/12 28/396/12 9/110/12
f 246/112/5 222/385/5 174/113/5
f 189/115/21 187/392/21 237/116/21
f 207/118/22 203/378/22 219/119/22
f 245/124/3 253/302/3 225/125/3
f 255/130/25 251/368/25 267/131/25
f 262/133/10 244/379/10 226/134/10
f 210/136/17 190/397/17 234/137/17
f 238/142/27 186/393/27 178/143/27
f 16/145/16 2/320/16 7/146/16
f 97/148/19 105/333/19 83/149/19
f 185/154/29 193/268/29 183/155/29
f 231/157/30 227/380/30 243/158/30
f 221/166/33 229/287/33 177/167/33
f 109/169/10 46/398/10 63/170/10
f 233/172/13 241/386/13 261/173/13
f 196/178/12 220/281/12 202/179/12
f 209/181/19 217/356/19 195/182/19
f 4/187/194 5/372/194 6/188/194
f 14/24/195 15/23/195 16/145/195
f 18/147/196 19/336/196 20/194/196
f 22/196/197 23/32/197 24/197/197
f 29/201/198 30/399/198 31/12/198
f 33/203/199 34/400/199 35/204/199
f 40/208/200 41/14/200 42/40/200
f 50/214/201 51/21/201 52/215/201
f 54/25/202 55/325/202 56/217/202
f 58/219/203 59/316/203 60/220/203
f 65/224/204 66/401/204 67/18/204
f 69/226/205 70/402/205 71/227/205
f 83/193/206 84/337/206 85/236/206
f 89/90/196 90/336/196 91/194/196
f 93/239/197 94/32/197 95/197/197
f 97/148/207 98/338/207 99/240/207
f 101/201/198 102/403/198 103/12/198
f 105/203/199 106/400/199 107/204/199
f 119/245/208 120/342/208 121/49/208
f 125/73/202 126/325/202 127/217/202
f 129/247/203 130/316/203 131/220/203
f 133/59/209 134/404/209 135/248/209
f 137/224/204 138/401/204 139/63/204
f 141/226/205 142/402/205 143/227/205
f 145/24/195 146/20/195 147/91/195
f 152/252/201 153/51/201 154/215/201
f 162/255/210 163/240/210 164/256/210
f 166/59/211 167/405/211 168/248/211
f 173/64/212 174/113/212 175/168/212
f 177/259/213 178/406/213 179/260/213
f 181/261/214 182/141/214 183/262/214
f 185/154/215 186/375/215 187/264/215
f 189/266/216 190/407/216 191/267/216
f 193/268/217 194/177/217 195/182/217
f 197/269/218 198/114/218 199/66/218
f 201/65/219 202/381/219 203/194/219
f 205/271/220 206/108/220 207/272/220
f 209/274/221 210/388/221 211/275/221
f 213/277/222 214/377/222 215/278/222
f 217/279/223 218/408/223 219/280/223
f 221/282/224 222/385/224 223/283/224
f 225/285/225 226/409/225 227/286/225
f 229/287/226 230/410/226 231/288/226
f 233/290/227 234/391/227 235/117/227
f 237/292/228 238/142/228 239/293/228
f 241/295/229 242/411/229 243/158/229
f 245/297/230 246/112/230 247/298/230
f 249/299/231 250/412/231 251/300/231
f 253/302/232 254/364/232 255/303/232
f 257/52/233 258/387/233 259/305/233
f 261/224/234 262/413/234 263/132/234
f 265/308/235 266/402/235 267/309/235
f 2/185/236 1/184/236 4/187/236
f 161/100/96 11/102/96 13/193/96
f 22/311/97 14/24/97 17/30/97
f 18/147/98 21/31/98 17/30/98
f 24/197/99 23/32/99 21/31/99
f 162/313/100 165/33/100 34/35/100
f 29/314/101 32/34/101 165/33/101
f 31/12/102 35/11/102 34/315/102
f 39/15/237 41/14/237 40/208/237
f 171/103/104 170/394/104 47/2/104
f 50/13/105 53/414/105 59/316/105
f 54/25/106 57/43/106 53/42/106
f 56/317/107 60/415/107 59/44/107
f 69/318/108 166/59/108 169/36/108
f 65/104/109 68/416/109 169/319/109
f 71/17/110 70/417/110 68/225/110
f 15/23/111 3/22/111 2/320/111
f 6/321/112 19/336/112 18/147/112
f 12/45/22 6/47/22 5/322/22
f 163/323/113 162/313/113 161/100/113
f 12/45/114 11/102/114 33/101/114
f 25/29/115 24/10/115 31/12/115
f 36/205/116 35/11/116 20/324/116
f 51/21/117 15/23/117 14/24/117
f 55/325/118 54/25/118 22/311/118
f 163/327/119 167/405/119 166/59/119
f 30/27/120 29/60/120 69/318/120
f 61/41/121 60/16/121 67/18/121
f 72/228/122 71/17/122 56/328/122
f 51/21/123 50/13/123 39/15/123
f 42/40/124 41/14/124 58/219/124
f 172/329/125 171/103/125 168/105/125
f 66/39/126 65/104/126 49/213/126
f 48/212/25 47/2/25 43/209/25
f 38/207/127 37/206/127 1/184/127
f 150/89/128 149/6/128 76/231/128
f 81/150/238 83/149/238 82/331/238
f 93/332/97 145/24/97 148/92/97
f 89/90/98 92/93/98 148/92/98
f 95/197/99 94/32/99 92/93/99
f 97/148/100 100/55/100 106/57/100
f 101/334/101 104/56/101 100/55/101
f 103/12/102 107/11/102 106/315/102
f 158/96/130 113/95/130 112/3/130
f 116/244/239 115/53/239 118/246/239
f 152/94/105 155/414/105 130/316/105
f 125/73/106 128/43/106 155/42/106
f 127/317/107 131/415/107 130/85/107
f 141/318/108 133/59/108 136/79/108
f 137/50/109 140/416/109 136/319/109
f 143/17/110 142/417/110 140/225/110
f 151/251/111 150/89/111 147/91/111
f 90/336/112 89/90/112 78/330/112
f 77/232/22 76/231/22 85/236/22
f 98/338/132 97/148/132 81/150/132
f 84/67/114 83/149/114 105/333/114
f 96/76/115 95/58/115 103/12/115
f 90/68/116 108/242/116 107/11/116
f 153/51/117 146/20/117 145/24/117
f 126/325/118 125/73/118 93/332/118
f 98/340/133 134/404/133 133/59/133
f 102/75/120 101/60/120 141/318/120
f 138/82/121 132/84/121 131/62/121
f 144/250/122 143/17/122 127/341/122
f 157/77/123 153/51/123 152/94/123
f 114/83/124 113/95/124 129/247/124
f 134/72/134 117/71/134 116/244/134
f 120/342/126 138/82/126 137/50/126
f 114/83/25 120/342/25 119/245/25
f 80/343/135 79/54/135 115/53/135
f 86/109/16 73/111/16 75/19/16
f 122/7/136 88/9/136 87/20/136
f 124/171/3 123/51/3 110/78/3
f 74/344/136 149/6/136 151/251/136
f 111/243/240 110/78/240 157/77/240
f 26/8/22 28/396/22 86/109/22
f 8/229/22 74/229/22 73/111/22
f 44/345/25 46/398/25 109/169/25
f 28/346/138 27/97/138 10/98/138
f 26/348/139 62/418/139 64/88/139
f 63/349/140 46/419/140 45/86/140
f 8/350/17 10/98/17 160/98/17
f 44/210/241 170/257/241 172/329/241
f 122/7/25 124/171/25 63/170/25
f 173/64/143 176/139/143 182/141/143
f 177/167/144 180/140/144 176/139/144
f 183/262/145 182/141/145 180/140/145
f 185/154/146 188/175/146 194/177/146
f 189/266/147 192/176/147 188/175/147
f 195/182/148 194/177/148 192/176/148
f 205/354/242 197/269/242 200/106/242
f 201/65/150 204/107/150 200/106/150
f 207/272/151 206/108/151 204/107/151
f 209/181/152 212/163/152 218/165/152
f 211/275/243 213/373/243 216/357/243
f 219/119/154 218/420/154 216/358/154
f 221/166/155 224/121/155 230/123/155
f 225/285/156 228/122/156 224/121/156
f 231/360/157 230/123/157 228/122/157
f 233/361/158 236/151/158 242/153/158
f 237/116/159 240/152/159 236/151/159
f 243/158/160 242/411/160 240/363/160
f 245/124/161 248/421/161 254/364/161
f 249/299/244 252/301/244 248/365/244
f 255/130/163 254/422/163 252/367/163
f 257/52/245 260/306/245 266/369/245
f 261/173/165 264/423/165 260/371/165
f 267/131/166 266/424/166 264/307/166
f 205/354/246 208/425/246 5/372/246
f 85/236/247 214/377/247 213/373/247
f 43/209/248 250/1/248 249/299/248
f 265/370/249 268/310/249 119/245/249
f 186/375/171 185/154/171 179/156/171
f 184/180/172 183/155/172 193/268/172
f 214/377/173 208/395/173 207/118/173
f 220/281/174 219/119/174 203/378/174
f 256/135/175 255/130/175 263/132/175
f 268/310/176 267/131/176 251/368/176
f 232/144/177 231/157/177 239/159/177
f 244/379/178 243/158/178 227/380/178
f 174/113/111 173/64/111 199/66/111
f 202/381/112 201/65/112 181/352/112
f 210/383/132 209/181/132 191/183/132
f 196/178/114 195/182/114 217/356/114
f 246/112/123 245/124/123 223/126/123
f 226/134/124 225/125/124 253/302/124
f 234/137/134 233/172/134 259/174/134
f 262/133/126 261/173/126 241/386/126
f 198/114/179 197/269/179 247/366/179
f 258/387/180 257/52/180 211/275/180
f 222/385/181 221/166/181 175/168/181
f 178/389/182 177/167/182 229/287/182
f 190/390/183 189/115/183 235/117/183
f 238/142/184 237/116/184 187/392/184
f 37/206/250 40/208/250 249/299/250
f 249/299/251 247/366/251 37/206/251
f 247/366/185 197/269/185 37/206/185
f 197/269/252 205/354/252 1/184/252
f 205/354/253 4/187/253 1/184/253
