# Blender 4.1.1
# www.blender.org
mtllib wall.mtl
o Cube
v 10.000000 200.000000 -10.000015
v 10.000000 -0.000001 -10.000000
v 10.000000 200.000000 9.999985
v 10.000000 0.000001 10.000000
v -10.000000 200.000000 -10.000015
v -10.000000 -0.000001 -10.000000
v -10.000000 200.000000 9.999985
v -10.000000 0.000001 10.000000
vn -0.0000 1.0000 -0.0000
vn -0.0000 -0.0000 1.0000
vn -1.0000 -0.0000 -0.0000
vn -0.0000 -1.0000 -0.0000
vn 1.0000 -0.0000 -0.0000
vn -0.0000 -0.0000 -1.0000
vt 0.713448 0.643347
vt 0.356939 0.999857
vt 0.356939 0.643347
vt 0.604024 0.006996
vt 0.802273 0.643061
vt 0.601740 0.640777
vt 0.002427 0.000143
vt 0.200676 0.636209
vt 0.000143 0.633925
vt 0.356653 0.643347
vt 0.000143 0.999857
vt 0.000143 0.643347
vt 0.403492 0.004711
vt 0.401208 0.638493
vt 0.202960 0.002427
vt 0.713448 0.999857
vt 0.804557 0.009280
vt 0.356653 0.999857
s 0
usemtl Material.001
f 5/1/1 3/2/1 1/3/1
f 3/4/2 8/5/2 4/6/2
f 7/7/3 6/8/3 8/9/3
f 2/10/4 8/11/4 6/12/4
f 1/13/5 4/6/5 2/14/5
f 5/15/6 2/14/6 6/8/6
f 5/1/1 7/16/1 3/2/1
f 3/4/2 7/17/2 8/5/2
f 7/7/3 5/15/3 6/8/3
f 2/10/4 4/18/4 8/11/4
f 1/13/5 3/4/5 4/6/5
f 5/15/6 1/13/6 2/14/6
